# xmcd
#
# Track frame offsets: 
#        150
#        17024
#        30273
#        47509
#        66558
#        80277
#        96149
#        113269
#        129789
#        145650
#        167131
#        178540
#
# Disc length: 2621 seconds
#
# Revision: 0
# Processed by: cddbd v1.5.2PL0 Copyright (c) Steve Scherf et al.
# Submitted via: ExactAudioCopyFreeDBPlugin 1.0
#
DISCID=870a3b0c
DTITLE=Mike Bloomfield, John Paul Hammond and Dr.John - Triumvirate
DYEAR=2014
DGENRE=Blues
TTITLE0=Cha-Dooky-Doo
TTITLE1=Last Night
TTITLE2=I Yi Yi
TTITLE3=Just To Be With You
TTITLE4=Baby Let Me Kiss You
TTITLE5=Sho Bout To Drive Me Wild
TTITLE6=It Hurts Me Too
TTITLE7=Rock Me Baby
TTITLE8=Ground Hog Blues
TTITLE9=Pretty Thing
TTITLE10=I Yi Yi (Single Version)
TTITLE11=The Trip
EXTD=
EXTT0=
EXTT1=
EXTT2=
EXTT3=
EXTT4=
EXTT5=
EXTT6=
EXTT7=
EXTT8=
EXTT9=
EXTT10=
EXTT11=
PLAYORDER=
